<?xml version="1.0" standalone="no"?><!DOCTYPE svg PUBLIC "-//W3C//DTD SVG 1.1//EN" "http://www.w3.org/Graphics/SVG/1.1/DTD/svg11.dtd"><svg t="1670325127180" class="icon" viewBox="0 0 1024 1024" version="1.1" xmlns="http://www.w3.org/2000/svg" p-id="6966" xmlns:xlink="http://www.w3.org/1999/xlink" width="200" height="200"><path d="M689.778705 877.712653 191.99722 877.712653C133.190737 877.712653 85.333333 828.489414 85.333333 768.001429L85.333333 109.711223C85.333333 49.223237 133.190737 0 191.99722 0L689.778705 0C748.586577 0 796.442592 49.223237 796.442592 109.711223L796.442592 768.001429C796.442592 828.489414 748.586577 877.712653 689.778705 877.712653L689.778705 877.712653ZM191.99722 73.140815C172.408958 73.140815 156.442592 89.563332 156.442592 109.711223L156.442592 768.001429C156.442592 788.187917 172.408958 804.571838 191.99722 804.571838L689.778705 804.571838C709.404493 804.571838 725.333333 788.187917 725.333333 768.001429L725.333333 109.711223C725.333333 89.563332 709.404493 73.140815 689.778705 73.140815L191.99722 73.140815 191.99722 73.140815ZM831.99722 1024 298.666667 1024C279.040879 1024 263.112038 1007.650389 263.112038 987.429591 263.112038 967.204508 279.040879 950.853468 298.666667 950.853468L832.00278 950.853468C851.628567 950.853468 867.557408 934.469547 867.557408 914.283059L867.557408 219.428162C867.557408 199.241675 883.448723 182.857756 903.112038 182.857756 922.77674 182.857756 938.666667 199.241675 938.666667 219.428162L938.666667 914.283059C938.666667 974.776764 890.810654 1024 831.99722 1024L831.99722 1024ZM547.554628 292.568977 263.112038 292.568977C243.486249 292.568977 227.557408 276.185058 227.557408 255.998571 227.557408 235.812083 243.486249 219.428162 263.112038 219.428162L547.554628 219.428162C567.219332 219.428162 583.109259 235.812083 583.109259 255.998571 583.109259 276.185058 567.219332 292.568977 547.554628 292.568977L547.554628 292.568977ZM618.663887 475.426733 263.145393 475.426733C243.518214 475.426733 227.589374 459.042814 227.589374 438.856326 227.589374 418.669839 243.518214 402.285918 263.145393 402.285918L618.663887 402.285918C638.328591 402.285918 654.224075 418.669839 654.224075 438.856326 654.224075 459.042814 638.328591 475.426733 618.663887 475.426733L618.663887 475.426733ZM618.663887 658.284489 263.112038 658.284489C243.486249 658.284489 227.557408 641.940595 227.557408 621.714082 227.557408 601.488996 243.486249 585.143674 263.112038 585.143674L618.663887 585.143674C638.328591 585.143674 654.224075 601.488996 654.224075 621.714082 654.224075 641.940595 638.328591 658.284489 618.663887 658.284489L618.663887 658.284489Z" p-id="6967" fill="#000000"></path></svg>