<?xml version="1.0" standalone="no"?><!DOCTYPE svg PUBLIC "-//W3C//DTD SVG 1.1//EN" "http://www.w3.org/Graphics/SVG/1.1/DTD/svg11.dtd"><svg t="1669696753589" class="icon" viewBox="0 0 1024 1024" version="1.1" xmlns="http://www.w3.org/2000/svg" p-id="27571" xmlns:xlink="http://www.w3.org/1999/xlink" width="200" height="200"><path d="M840.73 782.21c80.06-57.44 128.18-150.67 128.7-249.42 0.52-124.25-75.01-237.14-189.34-285.88-61.72-119.98-184.67-205.1-326.54-210.65C347.84 32.44 247.6 70.15 171.5 143.35 95.47 216.48 53.58 314.8 53.58 420.24c0 123.58 60.01 240.43 160.48 312.54 32.68 23.46 47.29 62.58 37.24 99.67l-37 136.23h307.87v0.12h324.11l-31.79-116.76c-7.01-25.89 3.33-53.31 26.24-69.83zM256.35 673.88c-81.57-58.54-130.28-153.36-130.28-253.64 0-85.52 33.98-165.3 95.69-224.64 61.75-59.39 143.09-90.21 228.96-86.88 165.89 6.47 300.11 147.01 299.21 313.25-0.52 99.63-49.11 193.78-129.95 251.87-57.51 41.34-82.99 111.05-64.92 177.59l12.13 44.76H309.12l12.13-44.76c18.07-66.57-7.42-136.28-64.9-177.55z m542.07 49.48c-47.71 34.38-68.88 92.31-53.9 147.67l6.89 25.27H642.35l-17.34-63.85c-10.05-37.09 4.58-76.24 37.28-99.77 99.63-71.57 159.47-187.6 160.13-310.35 0.12-22.94-2.14-45.4-6.01-67.37 49.87 44.82 80.83 109.79 80.53 177.47-0.4 75.59-37.19 146.95-98.52 190.93z" fill="#333333" p-id="27572"></path></svg>