<svg width="40" height="40" viewBox="0 0 40 40" fill="none" xmlns="http://www.w3.org/2000/svg">
<g clip-path="url(#clip0_267_4757)">
<path d="M40.0924 34.8118C40.0885 34.7844 40.0796 34.7318 40.0547 34.6701C40.0471 34.6466 40.0373 34.6218 40.0246 34.5964C40.0166 34.5803 40.0082 34.5657 39.9999 34.5525V34.5114L39.9188 34.387L36.1799 28.6514V3C36.1799 1.28386 34.796 -0.0999951 33.0799 -0.0999951H26.601C26.5903 -0.102538 26.5765 -0.105592 26.562 -0.108306C26.5333 -0.113695 26.4908 -0.119995 26.4399 -0.119995C26.4369 -0.119995 26.4335 -0.12001 26.4298 -0.120027C26.387 -0.120219 26.2995 -0.120612 26.1983 -0.0999951H14.0015C13.9003 -0.120612 13.8129 -0.120219 13.77 -0.120027C13.7663 -0.12001 13.7629 -0.119995 13.7599 -0.119995C13.7582 -0.119995 13.7561 -0.120022 13.7535 -0.120055C13.727 -0.12039 13.6535 -0.121317 13.5632 -0.0999951H7.1199C5.40376 -0.0999951 4.0199 1.28386 4.0199 3V28.625L0.0875942 34.3572L0.0680988 34.3856L0.0526867 34.4164L0.0513817 34.419C0.0327454 34.4563 0.00569874 34.5103 -0.0214423 34.5847L-0.0273048 34.5964C-0.101127 34.744 -0.100306 34.8837 -0.100113 34.9164C-0.100105 34.9178 -0.100098 34.919 -0.100098 34.92V39C-0.100098 39.6161 0.383758 40.1 0.999902 40.1H38.9999C39.6161 40.1 40.0999 39.6161 40.0999 39V34.98V34.94L40.0999 34.9369C40.1 34.9208 40.1003 34.867 40.0924 34.8118ZM33.9799 3V27.86H29.192L30.6154 17.327L30.6155 17.327L30.6168 17.3152C30.6501 17.016 30.5811 16.7131 30.3595 16.4546L30.3596 16.4546L30.3546 16.449C29.6253 15.6233 29.062 14.4494 28.6358 13.0785C28.2113 11.7128 27.933 10.1851 27.7539 8.6809C27.4376 6.02395 27.4351 3.47801 27.4662 2.1H33.0799C33.5838 2.1 33.9799 2.49615 33.9799 3ZM6.1999 3.5H6.2199V3C6.2199 2.49615 6.61604 2.1 7.1199 2.1H12.7336C12.7646 3.47707 12.7619 6.01856 12.4435 8.67295C12.2632 10.1758 11.983 11.7028 11.5558 13.0692C11.127 14.4408 10.56 15.6177 9.82528 16.4488L9.82524 16.4488L9.82027 16.4546C9.59874 16.7131 9.52972 17.016 9.56296 17.3152L9.56282 17.3152L9.56441 17.327L10.9878 27.86H6.1999V3.5ZM34.5089 30.06L36.9974 33.88H3.10494L5.70444 30.06H12.2599C12.5944 30.06 12.8764 29.9106 13.0735 29.7136L13.087 29.7L13.0995 29.6854C13.3211 29.4269 13.3901 29.124 13.3568 28.8248L13.357 28.8248L13.3554 28.8129L11.8239 17.5033C13.4862 15.3383 14.2748 12.006 14.6487 8.96349C14.9902 6.18417 14.9948 3.56066 14.9565 2.1H25.2634C25.225 3.56674 25.2293 6.19183 25.5711 8.97104C25.9451 12.0114 26.7337 15.3387 28.3959 17.5033L26.8644 28.8129L26.8643 28.8129L26.863 28.8248C26.8297 29.124 26.8987 29.4269 27.1203 29.6854C27.3509 29.9545 27.6598 30.06 27.9599 30.06H34.5089ZM-0.0600976 34.78C-0.0600976 34.7862 -0.0602045 34.785 -0.0600976 34.7794V34.78ZM37.8999 37.9H2.0999V36.08H37.8999V37.9Z" fill="black" stroke="black"/>
<path d="M22.5 18.2C22.5 17.18 21.68 16.36 20.66 16.36C19.64 16.36 18.82 17.18 18.82 18.2C18.82 18.42 18.86 18.64 18.94 18.82L17.78 19.98C17.46 20.3 17.46 20.84 17.78 21.16L17.82 21.2C18.14 21.52 18.68 21.52 19 21.2L19.2 21V30.42C18.58 30.56 18.16 30.88 18.16 31.24C18.16 31.74 18.98 32.16 20 32.16C21.02 32.16 21.84 31.74 21.84 31.24C21.84 30.92 21.5 30.64 21 30.46V20.02C21.86 19.86 22.5 19.1 22.5 18.2Z" fill="black"/>
</g>
<defs>
<clipPath id="clip0_267_4757">
<rect width="40" height="40" fill="white"/>
</clipPath>
</defs>
</svg>
