<?xml version="1.0" standalone="no"?><!DOCTYPE svg PUBLIC "-//W3C//DTD SVG 1.1//EN" "http://www.w3.org/Graphics/SVG/1.1/DTD/svg11.dtd"><svg t="1669875984754" class="icon" viewBox="0 0 1024 1024" version="1.1" xmlns="http://www.w3.org/2000/svg" p-id="15454" xmlns:xlink="http://www.w3.org/1999/xlink" width="200" height="200"><path d="M384 469.333h-85.333v85.334H384v-85.334z m170.667 0h-85.334v85.334h85.334v-85.334z m170.666 0H640v85.334h85.333v-85.334z m85.334-298.666H768V85.333h-85.333v85.334H341.333V85.333H256v85.334h-42.667c-47.36 0-84.906 38.4-84.906 85.333L128 853.333c0 46.934 37.973 85.334 85.333 85.334h597.334c46.933 0 85.333-38.4 85.333-85.334V256c0-46.933-38.4-85.333-85.333-85.333z m0 682.666H213.333V384h597.334v469.333z" fill="#000000" p-id="15455"></path></svg>