<?xml version="1.0" standalone="no"?><!DOCTYPE svg PUBLIC "-//W3C//DTD SVG 1.1//EN" "http://www.w3.org/Graphics/SVG/1.1/DTD/svg11.dtd"><svg t="1670296019145" class="icon" viewBox="0 0 1024 1024" version="1.1" xmlns="http://www.w3.org/2000/svg" p-id="44566" xmlns:xlink="http://www.w3.org/1999/xlink" width="200" height="200"><path d="M533.333333 53.333333a138.730667 138.730667 0 0 1 134.954667 106.666667H682.666667a138.666667 138.666667 0 0 1 74.688 255.509333l-0.021334 43.904a75.306667 75.306667 0 0 1 10.666667-0.746666h85.333333a74.666667 74.666667 0 0 1 74.666667 74.666666v234.666667a74.666667 74.666667 0 0 1-74.666667 74.666667h-85.333333a75.306667 75.306667 0 0 1-10.666667-0.746667V896a74.666667 74.666667 0 0 1-70.570666 74.56L682.666667 970.666667H213.333333a74.666667 74.666667 0 0 1-74.56-70.570667L138.666667 896V415.530667A138.666667 138.666667 0 0 1 213.333333 160h14.378667A138.730667 138.730667 0 0 1 362.666667 53.333333h170.666666z m160 383.594667a140.586667 140.586667 0 0 1-10.666666 0.405333h-202.666667V490.666667a96 96 0 1 1-192 0v-53.333334H213.333333c-3.584 0-7.146667-0.128-10.666666-0.405333V896a10.666667 10.666667 0 0 0 8.746666 10.496l1.92 0.170667h469.333334a10.666667 10.666667 0 0 0 10.496-8.746667L693.333333 896V436.928zM640 512v320h-64V512h64z m213.333333 10.666667h-85.333333a10.666667 10.666667 0 0 0-10.666667 10.666666v234.666667a10.666667 10.666667 0 0 0 10.666667 10.666667h85.333333a10.666667 10.666667 0 0 0 10.666667-10.666667V533.333333a10.666667 10.666667 0 0 0-10.666667-10.666666z m-320-405.333334h-170.666666A74.666667 74.666667 0 0 0 288 192v32H213.333333a74.666667 74.666667 0 0 0 0 149.333333h138.666667V490.666667a32 32 0 0 0 64 0v-117.333334H682.666667a74.666667 74.666667 0 0 0 0-149.333333h-74.666667V192A74.666667 74.666667 0 0 0 533.333333 117.333333z" p-id="44567" fill="#000000"></path></svg>