<?xml version="1.0" standalone="no"?><!DOCTYPE svg PUBLIC "-//W3C//DTD SVG 1.1//EN" "http://www.w3.org/Graphics/SVG/1.1/DTD/svg11.dtd"><svg t="1669876182254" class="icon" viewBox="0 0 1024 1024" version="1.1" xmlns="http://www.w3.org/2000/svg" p-id="20816" xmlns:xlink="http://www.w3.org/1999/xlink" width="200" height="200"><path d="M865.28 747.733333a74.197333 74.197333 0 0 0 4.693333-100.266666L665.6 402.56c3.2-16.426667 4.693333-33.28 4.693333-50.346667 0-35.626667-6.826667-70.186667-20.266666-102.186666-13.226667-32-32.64-61.226667-58.026667-86.4-103.893333-104.106667-273.066667-104.106667-376.96 0-104.106667 103.893333-104.106667 273.066667 0 377.173333A265.813333 265.813333 0 0 0 403.626667 618.666667c16.64 0 33.493333-1.493333 49.92-4.693334l245.546666 204.8c13.866667 11.52 30.72 17.066667 47.36 17.066667 18.986667 0 38.186667-7.466667 52.693334-21.973333l7.253333-7.253334c9.813333 26.026667 4.48 56.533333-16.213333 77.226667a31.786667 31.786667 0 0 0 0 45.226667c6.186667 6.4 14.293333 9.386667 22.613333 9.386666 8.106667 0 16.213333-2.986667 22.613333-9.386666 46.08-46.08 52.053333-117.12 18.346667-169.813334l11.52-11.52z m-484.266667-194.346666a200.704 200.704 0 0 1-120.746666-58.026667c-78.933333-78.933333-78.933333-207.573333 0-286.506667a202.026667 202.026667 0 0 1 143.36-59.306666c26.026667 0 51.84 4.906667 76.16 14.933333 24.533333 9.813333 47.146667 24.533333 66.986666 44.373333a199.509333 199.509333 0 0 1 58.24 120.96c0.853333 7.253333 1.28 14.933333 1.28 22.4 0 22.826667-3.84 45.013333-10.88 65.92a201.962667 201.962667 0 0 1-48.64 77.226667A199.978667 199.978667 0 0 1 469.333333 543.786667c-28.586667 9.813333-58.666667 13.013333-88.32 9.6z m439.04 149.12l-66.133333 66.133333c-3.84 3.84-10.026667 4.053333-14.08 0.853333l-215.466667-179.84c24.533333-12.16 47.36-28.586667 67.626667-48.853333s36.693333-43.093333 49.28-67.626667l179.413333 215.04c3.413333 4.266667 3.2 10.453333-0.64 14.293334z" p-id="20817"></path><path d="M456.362667 284.245333a32 32 0 0 0 0 45.269334 53.376 53.376 0 0 1 0 75.413333 53.44 53.44 0 0 1-75.434667 0 32.021333 32.021333 0 0 0-45.248 45.269333 116.906667 116.906667 0 0 0 82.965333 34.282667 117.034667 117.034667 0 0 0 82.986667-34.304 117.482667 117.482667 0 0 0 0-165.930667 32.042667 32.042667 0 0 0-45.269333 0z" p-id="20818"></path></svg>