<?xml version="1.0" standalone="no"?><!DOCTYPE svg PUBLIC "-//W3C//DTD SVG 1.1//EN" "http://www.w3.org/Graphics/SVG/1.1/DTD/svg11.dtd"><svg t="1670296549205" class="icon" viewBox="0 0 1024 1024" version="1.1" xmlns="http://www.w3.org/2000/svg" p-id="51266" xmlns:xlink="http://www.w3.org/1999/xlink" width="200" height="200"><path d="M956.7 444.1c6.1 11.8 4.4 26.1-4.1 36.3-8.6 10.2-22.4 14.1-35.1 10.1-8.3-2.7-15.2-8.6-19.2-16.3-58-113.2-129.8-155-189.6-167.4l26.7 118.8c6.2 27.5-0.2 56.4-17.3 78.7L474.3 821.8c-15.3 19.9-37.8 32.9-62.7 36.1-24.9 3.2-50-3.6-69.8-18.9L103.1 654.3c-41.3-32-49-91.4-17.2-132.9l240.5-313.2c19.1-24.9 48.7-39.8 80.1-40.2l193.5-2.6c44.7-0.5 83.7 30.3 93.4 74 81.6 8 185.5 52.6 263.3 204.7zM619.6 343.3c8.6-11.2 13.7-24.7 14.3-38.9C608 308 591 315 588.8 315.9c-12.2 5.2-26.4 2.5-35.9-6.8s-12.4-23.5-7.4-35.8c3.3-8.1 9.6-14.6 17.6-18 0.5-0.2 16-6.6 41.1-11.6-31-21.6-73.7-14.2-95.7 16.5-22 30.8-15.4 73.6 14.9 96.3 30.4 22.7 73.2 16.8 96.2-13.2zM373 493.8l-51-38.4c-7.8-6-18.2-7.4-27.3-3.6-9.1 3.8-15.4 12.2-16.6 22-1.2 9.8 3 19.4 11 25.3l51 38.4-38.4 51c-9.1 12.1-6.7 29.2 5.4 38.3 12.1 9.1 29.2 6.7 38.3-5.4l38.4-51 51 38.4c12.1 9.1 29.2 6.7 38.4-5.4 9.1-12.1 6.7-29.3-5.4-38.4l-51-38.4 38.4-51c6-7.8 7.4-18.2 3.6-27.3-3.8-9.1-12.2-15.4-22-16.6-9.8-1.2-19.4 3-25.3 11L373 493.8z m0 0" p-id="51267" fill="#000000"></path></svg>