<?xml version="1.0" standalone="no"?><!DOCTYPE svg PUBLIC "-//W3C//DTD SVG 1.1//EN" "http://www.w3.org/Graphics/SVG/1.1/DTD/svg11.dtd"><svg t="1670407813732" class="icon" viewBox="0 0 1024 1024" version="1.1" xmlns="http://www.w3.org/2000/svg" p-id="20445" xmlns:xlink="http://www.w3.org/1999/xlink" width="200" height="200"><path d="M512 74.666667C270.464 74.666667 74.666667 270.464 74.666667 512S270.464 949.333333 512 949.333333 949.333333 753.536 949.333333 512 753.536 74.666667 512 74.666667z m0 64c206.186667 0 373.333333 167.146667 373.333333 373.333333S718.186667 885.333333 512 885.333333 138.666667 718.186667 138.666667 512 305.813333 138.666667 512 138.666667z" fill="#000000" p-id="20446"></path><path d="M480 149.333333h64v106.666667h-64zM256 469.333333v64H149.333333v-64zM480 768h64v106.666667h-64zM874.666667 469.333333v64h-106.666667v-64z" fill="#000000" p-id="20447"></path><path d="M512 288a32 32 0 0 1 31.850667 28.928L544 320v213.333333c0 25.088-27.349333 40.064-48.298667 27.541334l-2.304-1.493334-149.333333-106.666666a32 32 0 0 1 34.602667-53.76l2.602666 1.664 98.730667 70.528V320a32 32 0 0 1 28.928-31.850667L512 288z" fill="#000000" p-id="20448"></path></svg>