<?xml version="1.0" standalone="no"?><!DOCTYPE svg PUBLIC "-//W3C//DTD SVG 1.1//EN" "http://www.w3.org/Graphics/SVG/1.1/DTD/svg11.dtd"><svg t="1669696876050" class="icon" viewBox="0 0 1024 1024" version="1.1" xmlns="http://www.w3.org/2000/svg" p-id="30469" xmlns:xlink="http://www.w3.org/1999/xlink" width="200" height="200"><path d="M517.12 1022.976c-184.32 2.048-355.328-94.72-448-253.952-92.672-158.72-92.672-355.328 0-514.048s263.68-256 448-253.952C797.184 4.096 1022.976 231.936 1022.976 512c0 280.064-225.28 507.392-505.856 510.976z m0-223.744c16.896 0.512 33.792-5.632 46.08-17.92 12.288-12.288 18.432-28.672 17.92-46.08 0.512-16.896-6.144-32.768-17.92-44.544-11.776-11.776-27.136-17.92-46.08-19.456-25.088 1.536-43.008 12.288-55.296 33.28-11.776 20.992-11.776 41.984 0 62.976 12.288 20.992 30.72 31.744 55.296 31.744z m49.152-208.896c0-3.584-1.536-14.336-1.024-12.8-2.048-12.8 1.024-25.6 7.68-36.352 5.12-8.192 13.312-16.384 25.6-23.552 72.192-42.496 98.304-90.112 97.28-139.264-2.048-73.728-56.832-146.432-175.104-147.456-98.816-1.024-163.84 46.592-179.2 136.192-3.584 25.6 13.824 49.664 39.424 54.272 25.6 4.608 50.176-12.288 55.296-37.888 7.168-40.448 29.696-57.344 83.968-56.832 59.392 0.512 79.36 27.136 80.384 54.784 0 4.608-1.024 9.216-3.584 13.312-6.656 11.776-20.992 25.6-46.08 40.448-25.088 14.848-44.544 33.28-57.856 54.272-20.992 32.768-25.6 65.536-22.016 98.816 0.512 5.12 0.512 4.608 0.512 1.536 0 26.624 21.504 48.128 48.128 48.128 25.088 0.512 46.592-20.992 46.592-47.616z m0 0" p-id="30470"></path></svg>