<?xml version="1.0" standalone="no"?><!DOCTYPE svg PUBLIC "-//W3C//DTD SVG 1.1//EN" "http://www.w3.org/Graphics/SVG/1.1/DTD/svg11.dtd"><svg t="1670295679371" class="icon" viewBox="0 0 1024 1024" version="1.1" xmlns="http://www.w3.org/2000/svg" p-id="32561" xmlns:xlink="http://www.w3.org/1999/xlink" width="200" height="200"><path d="M785.066667 85.333333a68.266667 68.266667 0 0 1 68.1984 64.853334L853.333333 153.6v273.066667a34.133333 34.133333 0 0 1-68.164266 2.56L785.066667 426.666667V153.6H170.666667v716.8h358.4a34.133333 34.133333 0 0 1 2.56 68.181333L529.066667 938.666667H170.666667a68.266667 68.266667 0 0 1-68.181334-64.853334L102.4 870.4V153.6a68.266667 68.266667 0 0 1 64.853333-68.181333L170.666667 85.333333h614.4z" fill="#000000" p-id="32562"></path><path d="M614.4 221.866667a34.133333 34.133333 0 0 1 2.56 68.181333L614.4 290.133333H341.333333a34.133333 34.133333 0 0 1-2.542933-68.181333l2.56-0.085333h273.066667z" fill="#000000" p-id="32563"></path><path d="M699.733333 544.989867l-2.389333-1.8944c-44.970667-35.1232-106.871467-41.864533-156.074667-13.141334-81.066667 47.274667-94.378667 157.184-30.071466 222.2592l152.6784 154.4192a50.397867 50.397867 0 0 0 71.7312-0.017066l152.661333-154.402134c64.324267-65.058133 50.9952-174.967467-30.088533-222.276266-49.169067-28.706133-111.086933-21.9648-156.074667 13.141333l-2.372267 1.911467z m127.214934 45.8752c39.389867 25.6 45.141333 80.605867 12.765866 113.3568L699.733333 845.789867l-139.9808-141.568c-33.2288-33.621333-26.299733-90.6752 15.9232-115.319467 26.862933-15.6672 63.300267-9.5232 87.466667 14.933333l12.3392 12.458667a34.133333 34.133333 0 0 0 48.5376 0l12.305067-12.458667c24.1664-24.439467 60.6208-30.600533 87.4496-14.933333l3.1744 1.962667z" fill="#000000" p-id="32564"></path></svg>