<?xml version="1.0" standalone="no"?><!DOCTYPE svg PUBLIC "-//W3C//DTD SVG 1.1//EN" "http://www.w3.org/Graphics/SVG/1.1/DTD/svg11.dtd"><svg t="1669875560757" class="icon" viewBox="0 0 1024 1024" version="1.1" xmlns="http://www.w3.org/2000/svg" p-id="5990" xmlns:xlink="http://www.w3.org/1999/xlink" width="200" height="200"><path d="M923.56 405.57L564.59 106.42c-15.48-12.9-34.47-19.35-53.46-19.35s-37.98 6.45-53.46 19.35L98.7 405.57c-30 25-12.32 73.83 26.73 73.83h51.69v375.77c0 46.12 37.39 83.5 83.5 83.5h501.02c46.12 0 83.5-37.39 83.5-83.5V479.39h51.69c39.05 0 56.73-48.82 26.73-73.82z m-161.92 73.82v375.77H260.62V479.39c0-28.86-14.65-54.31-36.91-69.31l287.38-239.51h0.05l287.42 239.52c-22.27 15-36.92 40.44-36.92 69.3z" fill="#1A1A1A" p-id="5991"></path><path d="M384.26 365.07l-15.88 142.92c-4.53 40.79 8.57 81.74 35.94 112.33 17.63 19.7 40.22 33.89 65.01 41.56v49.23h-14.22c-23.56 0-42.67 19.1-42.67 42.67 0 23.56 19.1 42.67 42.67 42.67h113.78c23.56 0 42.67-19.1 42.67-42.67 0-23.56-19.1-42.67-42.67-42.67h-14.22v-49.23c24.79-7.68 47.37-21.87 65.01-41.56 27.38-30.6 40.48-71.54 35.94-112.33l-15.88-142.92c-2.4-21.61-20.66-37.96-42.4-37.96H426.67c-21.75 0-40.01 16.35-42.41 37.96z m68.93 152.33l11.67-104.96h94.29l11.67 104.96c1.88 16.96-3.35 33.29-14.72 46s-27.03 19.71-44.09 19.71-32.72-7-44.09-19.71-16.61-29.04-14.73-46z" fill="#1A1A1A" p-id="5992"></path></svg>