<?xml version="1.0" standalone="no"?><!DOCTYPE svg PUBLIC "-//W3C//DTD SVG 1.1//EN" "http://www.w3.org/Graphics/SVG/1.1/DTD/svg11.dtd"><svg t="1670295583100" class="icon" viewBox="0 0 1024 1024" version="1.1" xmlns="http://www.w3.org/2000/svg" p-id="29144" xmlns:xlink="http://www.w3.org/1999/xlink" width="200" height="200"><path d="M522.24128 971.84L71.36128 553.28A307.52 307.52 0 0 1 0.00128 356.16a304.64 304.64 0 0 1 512-224 304.64 304.64 0 0 1 512 224 307.52 307.52 0 0 1-71.36 197.12l-3.2 3.2-352 320-42.88-47.36 352-317.76A248.32 248.32 0 0 0 960.00128 356.16a240.32 240.32 0 0 0-423.68-155.2l-24.32 28.8-24.32-28.8A240.32 240.32 0 0 0 64.00128 356.16 247.04 247.04 0 0 0 119.36128 512l448 414.08z" fill="#000000" p-id="29145"></path><path d="M486.72128 764.16L164.48128 464.64A179.52 179.52 0 0 1 128.00128 356.16a176.32 176.32 0 0 1 176-176v64a112 112 0 0 0-112 112 119.68 119.68 0 0 0 21.76 67.84l316.48 293.12z m135.36-455.68l-56-32a176.32 176.32 0 0 1 239.04-69.44l-32 56.32A112 112 0 0 0 688.96128 256a110.72 110.72 0 0 0-66.88 52.48z" fill="#000000" p-id="29146"></path></svg>