<?xml version="1.0" standalone="no"?><!DOCTYPE svg PUBLIC "-//W3C//DTD SVG 1.1//EN" "http://www.w3.org/Graphics/SVG/1.1/DTD/svg11.dtd"><svg t="1670904881603" class="icon" viewBox="0 0 1024 1024" version="1.1" xmlns="http://www.w3.org/2000/svg" p-id="21004" xmlns:xlink="http://www.w3.org/1999/xlink" width="200" height="200"><path d="M819.45 152.55h-614.9a52.06 52.06 0 0 0-52 52v614.9a52.06 52.06 0 0 0 52 52h614.9a52 52 0 0 0 52-52v-614.9a52.06 52.06 0 0 0-52-52z m-20 646.9h-574.9v-574.9h574.9z" p-id="21005" fill="#000000"></path><path d="M486.86 560l80 63a36 36 0 1 0 44.54-56.56l-66.25-52.18V330.61a36 36 0 0 0-72 0v201.08A36 36 0 0 0 486.86 560z" p-id="21006" fill="#000000"></path></svg>