<?xml version="1.0" standalone="no"?><!DOCTYPE svg PUBLIC "-//W3C//DTD SVG 1.1//EN" "http://www.w3.org/Graphics/SVG/1.1/DTD/svg11.dtd"><svg t="1670904870952" class="icon" viewBox="0 0 1024 1024" version="1.1" xmlns="http://www.w3.org/2000/svg" p-id="20842" xmlns:xlink="http://www.w3.org/1999/xlink" width="200" height="200"><path d="M830.732813 130.997222H124.314151c-18.830004 0-34.137849 15.307845-34.137849 34.137849v706.418662c0 18.830004 15.262689 34.137849 34.137849 34.137849h706.418662c18.830004 0 34.137849-15.262689 34.137849-34.137849V165.135071c0-18.830004-15.307845-34.137849-34.137849-34.137849z m-34.137849 706.418662H158.452V199.27292h638.142964v638.142964z" p-id="20843"></path><path d="M347.700313 775.416854c4.921991 2.438418 10.114918 3.612471 15.262689 3.612471 12.50818 0 24.564801-6.90885 30.570534-18.87516l91.711602-183.378048c31.563963-3.973718 56.354544-29.84804 56.354544-62.495745 0-15.985183-6.412136-30.118975-16.12065-41.36279l36.034396-123.049786c5.283239-18.10751-5.057459-37.027826-23.164969-42.35622-18.152666-5.283239-37.072981 5.057459-42.35622 23.164969l-36.034396 123.094942c-26.641972 7.766812-46.465405 31.338184-46.465406 60.508885 0 12.237245 4.334965 22.984345 10.295542 32.692861l-91.305199 182.655554c-8.44415 16.843145-1.625612 37.343917 15.217533 45.788067z" p-id="20844"></path></svg>